<svg width="149" height="108" viewBox="0 0 149 108" fill="none" xmlns="http://www.w3.org/2000/svg">
<path d="M45.2438 5.80485C44.5002 6.18025 43.6709 6.93106 43.2419 7.59523L42.4697 8.77918L42.3839 43.7204C42.3267 67.4573 42.3839 79.0369 42.6127 79.73C43.0131 81.145 43.8711 82.2134 45.2152 82.8776C46.2734 83.4262 46.9597 83.4551 62.9465 83.4551H79.591L78.9046 84.2059C78.2755 84.8701 75.4442 86.3717 72.3555 87.6712C69.5528 88.8551 68.2373 90.7032 68.2659 93.4466C68.2945 95.4679 68.7521 96.5653 70.182 97.8359C73.1277 100.435 77.7035 99.453 79.5338 95.8433C80.1916 94.5439 80.2488 91.9738 79.6768 90.5877C79.1906 89.4038 77.4175 87.8155 76.3307 87.5845C75.8732 87.4979 75.5014 87.3535 75.5014 87.238C75.53 87.1514 76.4737 86.6316 77.6463 86.0829C78.8188 85.5343 80.1344 84.7257 80.5634 84.2925L81.3641 83.484L91.4023 83.4551H101.412L102.727 82.6177C103.585 82.069 104.215 81.3471 104.644 80.5097L105.244 79.2102L105.187 52.4123L105.101 25.5856L102.527 24.1995C96.9505 21.2252 89.286 19.3482 82.7369 19.3482C79.3336 19.3482 78.1325 19.4926 74.4146 20.3877C68.8092 21.745 62.7749 25.6434 58.9712 30.4369C51.4211 39.9375 49.791 52.0369 54.7672 61.7974C58.3421 68.7856 63.7759 72.5685 70.182 72.5685C75.6158 72.5685 80.592 70.0273 83.6235 65.7246C85.3394 63.3278 86.083 61.1332 86.083 58.5054C86.083 56.715 85.94 56.1375 85.0534 54.2893C84.081 52.2391 83.9952 52.1524 83.7378 52.8455C82.9657 54.9246 81.8789 56.715 81.1068 57.3214C78.3327 59.4294 73.5853 58.4765 71.8407 55.4733C70.2964 52.8166 71.1544 48.4273 73.6711 46.2327C76.9313 43.3161 82.2507 42.623 86.3117 44.5289C88.1993 45.4241 90.3156 47.7343 91.4023 50.0733C95.0344 57.8412 93.0611 67.6305 86.5691 73.8102C78.0467 81.9824 62.2315 81.4337 53.4803 72.6551C47.8749 67.053 45.1294 59.6893 45.1008 50.2466C45.1008 35.577 52.1361 23.6508 64.4908 17.3845C68.1801 15.5364 73.5281 13.977 77.3603 13.6883C78.3041 13.6305 79.5624 13.4861 80.1344 13.4284C81.5643 13.2262 87.3127 13.746 90.0582 14.3236C94.4338 15.2188 99.4958 17.3268 103.242 19.7524L105.273 21.1097L105.187 14.93C105.101 8.80806 105.101 8.75031 104.329 7.59523C103.871 6.90218 103.071 6.18025 102.327 5.80485C101.069 5.19844 100.983 5.19844 73.7568 5.19844H46.4735L45.2438 5.80485ZM76.1592 88.1909C78.2183 89.0573 79.305 91.4252 78.6759 93.5909C77.2459 98.4423 70.5538 98.5867 69.181 93.7931C68.7521 92.2915 69.181 90.992 70.468 89.6637C72.1839 87.931 74.3002 87.3824 76.1592 88.1909Z" fill="black"/>
<path d="M103.099 84.3496C101.726 84.6095 96.3781 86.4576 94.9482 87.1795C94.0902 87.6416 93.8328 87.6416 93.0893 87.3239C92.6317 87.1218 91.5163 86.9485 90.6298 86.9196C87.6841 86.9196 85.2532 88.7389 85.2246 91.0202C85.196 91.5399 84.767 91.9442 83.0225 92.926C81.4495 93.8501 80.9634 94.2833 81.1921 94.5143C81.4209 94.7453 81.5925 94.7453 81.8499 94.4854C82.0501 94.2833 82.5649 94.1389 82.9939 94.1389C83.8232 94.1389 84.1378 94.4276 85.8538 96.7378C88.1417 99.8276 92.6889 100.261 95.2914 97.6041L96.3781 96.5068L97.2075 97.3442C98.0941 98.2394 99.3524 98.4416 100.382 97.8929C100.811 97.6619 101.097 97.7774 101.783 98.4704C102.956 99.6544 104.3 99.6544 105.501 98.4704C106.331 97.6041 106.96 96.0736 106.96 94.8319C106.96 93.7346 106.159 91.4822 105.501 90.7891C104.5 89.7207 101.926 90.0095 101.612 91.2512C101.44 91.8865 100.954 92.002 100.468 91.5111C100.153 91.1934 98.3515 91.2801 97.4935 91.6555C97.1503 91.7998 96.9787 91.6555 96.8643 90.9913C96.7785 90.5293 96.2923 89.6629 95.7776 89.0854C95.2914 88.5367 94.9196 88.017 94.9768 87.9592C95.2056 87.7282 100.554 86.371 102.384 86.0533C104.986 85.6202 105.244 85.5047 105.244 84.8982C105.244 84.2629 104.557 84.0897 103.099 84.3496ZM92.2313 87.7859L92.8033 88.017L92.2313 88.248C91.9167 88.3635 90.4582 89.0276 88.971 89.7207C87.4839 90.4137 86.1969 90.9047 86.1397 90.818C86.054 90.7314 86.1969 90.2116 86.4543 89.6341C87.2551 87.9881 90.3152 86.9774 92.2313 87.7859ZM94.6622 88.941C95.6918 89.6918 96.5211 91.771 96.2637 93.0416C95.8348 95.4095 93.9472 96.9399 91.0587 97.2287C89.7718 97.3731 89.2856 97.2576 87.9415 96.6223C87.0549 96.1603 85.9682 95.3228 85.4534 94.6875C84.9672 94.0811 84.3952 93.5613 84.1664 93.5613C83.5373 93.5613 83.7374 93.0993 84.5668 92.7239C85.2818 92.4063 85.3962 92.4351 85.911 93.1282C87.7985 95.7849 93.2323 94.8319 93.2323 91.8576C93.2323 91.4533 92.8319 90.818 92.2599 90.2694L91.3161 89.3453L92.3457 88.8833C93.7184 88.2768 93.7184 88.2768 94.6622 88.941ZM91.8023 90.6736C92.5173 91.3956 92.5459 92.464 91.8023 93.1282C91.0301 93.8212 89.8004 93.7635 89.1712 92.9838C88.5135 92.1464 88.5135 91.7998 89.257 90.8469C89.972 89.9517 91.0016 89.8651 91.8023 90.6736ZM88.0273 91.8287C87.9987 92.3196 88.1989 92.926 88.4563 93.2148C89.2284 94.0811 89.0282 94.1966 87.8271 93.5902C86.3971 92.8394 86.1397 92.1464 86.9977 91.4822C87.9129 90.7891 88.0559 90.818 88.0273 91.8287ZM104.672 92.2908C105.072 93.3303 105.015 96.7667 104.586 97.6041C104.128 98.5571 102.899 98.7014 102.127 97.9218C101.64 97.4309 101.583 97.0555 101.669 95.0341C101.783 92.2041 101.926 91.7132 102.756 91.3378C103.556 90.9624 104.329 91.3378 104.672 92.2908ZM99.9816 92.0597C101.211 92.8683 101.211 96.3047 100.01 97.0843C98.7804 97.8929 96.9501 96.6223 96.9501 94.9763C96.9501 92.7239 98.6088 91.1357 99.9816 92.0597Z" fill="black"/>
<path d="M46.6735 87.4398C44.9575 88.0751 43.2988 89.49 42.7268 90.8761C42.1262 92.2622 42.212 94.6013 42.8984 96.0451C44.071 98.4708 47.3598 99.7703 50.5629 99.1061C53.2226 98.5574 54.5381 97.2291 54.7955 94.8612C54.9385 93.6483 54.8527 93.244 54.2808 92.4066C52.8508 90.2408 49.4475 89.4323 47.7888 90.8473C46.7021 91.7713 46.6449 92.7531 47.6172 93.7061C49.1902 95.2943 52.0214 94.0815 51.6783 91.9446L51.5067 90.9628L52.336 91.3959C53.4228 91.9735 54.1378 93.3596 53.909 94.3991C53.3656 96.8537 49.0472 98.1531 46.1301 96.7093C44.4428 95.8719 43.6706 94.6879 43.5276 92.6954C43.4132 91.1649 43.4704 90.9916 44.357 89.9521C44.9003 89.3456 45.8727 88.5948 46.5591 88.3061C48.1892 87.5553 51.0491 87.5553 52.6792 88.3061C54.1664 88.9702 56.2827 91.2227 56.5401 92.4066C56.6259 92.8975 56.7975 93.2729 56.9118 93.2729C57.0262 93.2729 57.1978 93.9371 57.2836 94.7168C57.541 96.767 58.2274 97.8066 60.0005 98.6729C61.2875 99.3082 61.7737 99.3948 63.2894 99.2793L65.0625 99.135L64.1474 101.012C63.0606 103.149 63.032 103.38 63.6326 104.679C64.176 105.777 65.0911 106.268 66.6355 106.268C67.951 106.268 68.237 105.575 67.0358 105.286C64.3475 104.593 64.2618 100.925 66.8356 98.1243C67.7222 97.1713 67.4648 96.4205 66.5211 97.258C65.0625 98.6152 62.889 98.8751 61.2875 97.8932C59.6859 96.9114 58.8852 94.5724 59.6001 92.8975C60.2293 91.3093 61.1159 90.905 64.2046 90.7317L66.8928 90.5874L66.4639 89.5478C65.7489 87.8152 64.8623 87.1221 63.1178 86.9777C61.8023 86.8622 61.4591 86.9489 60.9443 87.4686C60.6297 87.7863 60.3437 88.3927 60.3437 88.797C60.3437 89.8654 61.4305 89.7499 62.3742 88.6237C62.9748 87.8729 63.2608 87.7285 63.8614 87.9018C64.7479 88.1039 65.8347 89.2013 65.7203 89.7499C65.6631 90.0387 64.8909 90.1831 62.8318 90.2697C59.7431 90.3852 58.5134 90.8473 57.9986 91.9735C57.5696 92.8975 57.3122 92.8975 57.112 91.8868C56.8547 90.5585 55.3961 88.8547 53.766 87.9596C51.7355 86.8622 48.9042 86.6601 46.6735 87.4398ZM50.4485 91.4248C51.4495 92.4066 50.7917 93.5617 49.276 93.5617C48.1034 93.5617 47.5028 92.5799 48.0176 91.5692C48.418 90.8473 49.7907 90.7317 50.4485 91.4248Z" fill="black"/>
</svg>
